<svg xmlns="http://www.w3.org/2000/svg" width="256" height="256" xmlns:v="https://vecta.io/nano"><linearGradient id="A" gradientUnits="userSpaceOnUse" x1="91.281" y1="12.514" x2="167.261" y2="251.481"><stop offset=".157" stop-color="#ff1dff"/><stop offset="1" stop-color="#672eeb"/></linearGradient><path d="M128,256c70.7,0,128-57.3,128-128S198.7,0,128,0S0,57.3,0,128S57.3,256,128,256z" fill="url(#A)"/><path d="M207.4 84.2c-6.4-6.5-14.7-10.6-23.7-11.5-8.9-1-17.9 1.2-25.5 6.2 8.2 9.5 12.5 21.8 12.1 34.4s-5.5 24.6-14.2 33.6l-23.8 24.3 8 8.2 3.3-3.3 8.2 8.3-3.3 3.3 6.5 6.7 52.3-53.4c7.4-7.5 11.5-17.7 11.5-28.4.1-10.7-4-20.9-11.4-28.4zm-57.9-.8c-3.7-3.7-8-6.7-12.8-8.7s-9.9-3.1-15-3.1-10.3 1-15 3.1c-4.8 2-9.1 5-12.8 8.7l-52.3 53.4 6.5 6.7 3.3-3.3 8.2 8.3-3.3 3.3 8.2 8.3 3.3-3.3 9.8 10-3.3 3.3 8.2 8.3 3.3-3.3 8.2 8.3-3.3 3.3 6.5 6.7 52.3-53.4c7.4-7.5 11.5-17.7 11.5-28.4.1-10.5-4.1-20.7-11.5-28.2z" opacity=".25" enable-background="new"/><path d="M202.9 79.6c-6.4-6.5-14.7-10.6-23.7-11.5-8.9-1-17.9 1.2-25.5 6.2 8.2 9.5 12.5 21.8 12.1 34.4s-5.5 24.6-14.2 33.6l-23.8 24.3 8 8.2 3.3-3.3 8.2 8.3-3.3 3.3 6.5 6.7 52.3-53.4c7.4-7.5 11.5-17.7 11.5-28.4s-4.1-20.9-11.4-28.4z" fill="#d7d7d7"/><path d="M202.9 79.6c-6.4-6.5-14.7-10.6-23.7-11.5-8.9-1-17.9 1.2-25.5 6.2 8.2 9.5 12.5 21.8 12.1 34.4s-5.5 24.6-14.2 33.6l-23.8 24.3 3.5 3.5 3.3-3.3 12.7 13-3.3 3.3 2 2.1 52.3-53.4c15.4-15.8 19.9-36.6 4.6-52.2z" fill="#fff"/><path d="M145 78.7c-3.7-3.7-8-6.7-12.8-8.7s-9.9-3.1-15-3.1c-5.2 0-10.3 1-15 3.1-4.8 2-9.1 5-12.8 8.7l-52.3 53.4 6.5 6.7 3.3-3.3 8.2 8.3-3.3 3.3 8.2 8.3 3.3-3.3 9.8 10-3.3 3.3 8.2 8.3 3.3-3.3 8.2 8.3-3.3 3.3 6.5 6.7 52.3-53.4c7.4-7.5 11.5-17.7 11.5-28.4 0-10.4-4.1-20.6-11.5-28.2z" fill="#d7d7d7"/><path d="M145 78.7c-3.7-3.7-8-6.7-12.8-8.7s-9.9-3.1-15-3.1c-5.2 0-10.3 1-15 3.1-4.8 2-9.1 5-12.8 8.7l-52.3 53.4 2 2.1 3.3-3.3 12.7 13-3.3 3.3 3.7 3.7 3.3-3.3 14.3 14.6-3.3 3.3 3.7 3.7 3.3-3.3 12.7 13-3.3 3.3 2 2.1 52.3-53.4c15.4-15.7 19.9-36.5 4.5-52.2z" fill="#fff"/></svg>